<?xml version="1.0" standalone="no"?>
<!DOCTYPE svg PUBLIC "-//W3C//DTD SVG 20010904//EN"
 "http://www.w3.org/TR/2001/REC-SVG-20010904/DTD/svg10.dtd">
<svg version="1.0" xmlns="http://www.w3.org/2000/svg"
 width="460.000000pt" height="460.000000pt" viewBox="0 0 460.000000 460.000000"
 preserveAspectRatio="xMidYMid meet">
<metadata>
Created by potrace 1.11, written by Peter Selinger 2001-2013
</metadata>
<g transform="translate(0.000000,460.000000) scale(0.100000,-0.100000)"
fill="#000000" stroke="none">
<path d="M2204 4468 c4 -68 7 -186 7 -263 0 -127 9 -720 24 -1455 10 -496 17
-755 23 -764 3 -5 -3 -6 -12 -3 -10 4 -29 10 -42 13 -15 4 -32 22 -46 51 -15
30 -34 51 -55 61 -18 9 -33 19 -33 24 0 4 -8 8 -18 8 -10 0 -26 6 -37 14 -11
7 -36 18 -55 25 -43 14 -82 81 -47 81 7 0 21 -15 30 -32 14 -26 16 -28 11 -8
-11 44 -32 69 -54 63 -13 -3 -20 0 -21 8 -1 8 -4 1 -8 -16 l-6 -30 -29 50 -28
50 18 75 c10 41 26 102 36 135 10 33 15 61 11 63 -40 14 -58 30 -55 50 3 23
-13 31 -21 10 -3 -10 -7 -10 -20 0 -8 7 -21 12 -29 12 -23 -3 -58 12 -58 25 0
12 -148 50 -158 40 -3 -3 2 -5 11 -5 10 0 17 -7 17 -16 0 -8 4 -12 10 -9 5 3
7 0 4 -8 -7 -20 57 -100 86 -109 14 -4 37 -10 51 -13 15 -2 41 -18 59 -35 27
-25 31 -35 26 -60 -6 -32 -56 -114 -56 -92 0 6 -4 11 -9 10 -14 -5 -90 56 -91
72 0 8 -15 24 -32 35 -29 19 -57 76 -58 117 0 11 -12 20 -32 26 -30 8 -33 12
-33 48 0 33 -4 41 -29 53 -25 13 -30 13 -41 -2 -6 -9 -15 -14 -18 -10 -4 3 -7
-5 -7 -19 0 -24 -16 -38 -44 -38 -16 0 -48 78 -34 82 6 2 7 19 3 41 -4 21 -12
36 -18 34 -6 -2 -26 -44 -43 -93 -25 -69 -33 -84 -37 -64 -2 14 -5 -5 -6 -42
0 -37 4 -70 9 -73 6 -3 10 2 10 12 1 30 58 179 63 163 14 -44 27 -128 27 -174
0 -50 15 -190 26 -251 3 -16 9 -52 14 -80 66 -420 68 -447 56 -857 -3 -91 -9
-184 -15 -205 -5 -21 -13 -65 -17 -98 -8 -72 -16 -88 -26 -55 -4 14 -4 -2 -1
-35 3 -33 9 -65 14 -71 6 -7 4 -16 -5 -23 -36 -30 -66 -207 -52 -303 8 -54 40
-110 59 -102 39 15 72 172 65 309 -2 57 -8 81 -26 105 -13 17 -20 35 -17 40 3
6 1 10 -5 10 -13 0 -8 48 22 200 21 107 41 148 57 122 8 -13 20 -68 57 -260
15 -78 15 -84 -2 -103 -15 -17 -13 -23 8 -20 3 0 2 -14 -3 -32 -25 -88 3 -213
49 -211 12 0 22 -3 22 -8 0 -4 -7 -8 -16 -8 -33 0 -61 -51 -39 -70 14 -12 16
-72 3 -63 -5 2 -8 -3 -8 -11 0 -9 5 -16 11 -16 5 0 7 -5 4 -10 -4 -6 -11 -8
-16 -5 -15 10 -10 -22 6 -35 9 -7 13 -20 10 -28 -3 -8 0 -22 7 -30 10 -12 10
-14 1 -8 -9 5 -13 0 -13 -13 0 -12 5 -21 11 -21 6 0 9 -10 8 -22 -1 -13 1 -30
5 -40 4 -9 5 -37 2 -62 -2 -25 -2 -46 2 -46 4 0 15 -14 25 -31 10 -18 21 -29
25 -25 3 4 1 11 -7 15 -10 7 -9 10 3 14 11 4 16 1 16 -12 0 -24 25 -34 40 -15
10 11 9 14 -8 14 -15 0 -19 5 -15 18 2 10 11 19 19 19 10 0 11 -4 3 -14 -9
-10 -8 -13 4 -13 8 0 17 -9 20 -21 5 -18 9 -19 27 -9 20 11 21 10 9 -12 -6
-13 -8 -20 -4 -16 5 4 15 3 22 -4 11 -9 17 -9 24 3 6 9 9 10 9 2 0 -17 148
-53 213 -53 30 1 31 1 13 15 -18 14 -18 15 -2 15 10 0 20 -9 23 -19 7 -28 92
-35 337 -28 204 6 319 21 492 66 683 175 1250 656 1533 1299 23 51 41 100 41
108 0 8 -11 40 -25 70 -14 30 -25 60 -25 66 0 6 -9 30 -19 52 -10 23 -33 79
-51 126 -17 47 -37 94 -44 105 -15 24 -50 125 -44 130 2 2 81 5 176 7 94 2
172 6 172 11 0 4 -80 7 -179 7 -177 0 -179 0 -185 23 -3 12 -6 31 -6 42 0 11
-14 40 -30 65 -16 25 -30 57 -30 73 0 15 -4 27 -10 27 -5 0 -10 5 -10 10 0 6
-9 23 -20 38 l-20 27 25 48 c32 65 26 101 -28 150 -23 20 -72 49 -109 64 -38
14 -68 28 -68 29 0 2 19 3 43 3 106 -3 220 2 213 9 -4 4 -35 8 -69 8 -114 3
-106 -1 -103 44 2 22 0 42 -4 45 -13 8 -2 116 14 140 12 18 14 36 10 65 -6 36
-5 40 15 40 12 0 19 4 16 10 -3 6 -1 10 5 10 6 0 10 6 9 13 -6 44 2 77 19 77
13 0 14 2 3 9 -12 7 -11 12 1 30 8 11 18 18 21 14 4 -3 7 -1 7 5 0 5 -6 13
-12 15 -8 3 -5 6 5 6 10 1 17 6 15 13 -3 7 9 22 26 34 17 11 30 26 28 32 -1 7
9 12 23 12 14 0 25 5 25 10 0 6 -4 10 -10 10 -5 0 -10 7 -10 15 0 8 5 15 10
15 6 0 10 6 10 14 0 8 6 16 14 19 7 3 17 18 21 34 3 15 12 31 18 35 8 5 5 8
-7 8 -12 0 -16 5 -13 14 7 19 -14 62 -74 151 -158 236 -467 521 -720 664 -61
35 -276 141 -285 141 -3 0 -4 -6 -1 -14 4 -9 0 -12 -12 -9 -14 4 -16 -2 -13
-36 2 -23 8 -38 14 -35 5 3 7 12 4 20 -3 7 -1 16 3 19 11 6 19 -13 16 -42 -1
-14 4 -23 12 -23 7 0 13 7 13 16 0 18 25 46 34 37 10 -10 7 -25 -4 -18 -5 3
-10 1 -10 -4 0 -6 7 -11 15 -11 9 0 12 -6 9 -15 -4 -8 -1 -15 5 -15 6 0 11 -9
11 -20 0 -11 7 -20 15 -20 17 0 21 -35 5 -45 -6 -4 -10 -3 -9 2 6 34 -19 45
-41 18 -7 -8 -16 -13 -20 -10 -13 8 -23 -16 -12 -27 7 -7 7 -16 -1 -30 -10
-15 -9 -20 3 -28 8 -5 19 -5 25 0 13 10 49 -15 41 -28 -3 -6 -3 -17 0 -26 5
-13 9 -14 20 -5 17 14 18 -2 2 -20 -7 -8 -8 -11 -3 -8 6 3 17 2 25 -4 9 -5 10
-9 3 -9 -6 0 -9 -8 -6 -19 6 -24 -11 -35 -29 -19 -7 7 -20 14 -28 16 -11 3
-10 -1 3 -16 10 -11 15 -26 11 -36 -5 -13 1 -16 27 -17 27 0 30 -2 14 -8 -34
-14 -115 -21 -115 -11 0 5 -7 7 -15 4 -9 -4 -15 0 -15 10 0 9 -4 16 -10 16 -5
0 -10 -5 -10 -11 0 -8 -4 -8 -12 -2 -7 6 -26 13 -43 17 -16 4 -33 12 -36 18
-4 5 -15 8 -25 6 -13 -3 -2 -12 38 -31 31 -15 59 -32 62 -39 4 -9 8 -10 11 -2
3 7 15 9 27 6 15 -4 6 -10 -38 -24 -33 -10 -67 -16 -76 -14 -10 2 -21 0 -24
-5 -3 -5 0 -9 6 -9 6 0 -6 -15 -26 -32 -21 -18 -42 -33 -48 -33 -6 0 -12 -9
-14 -20 -2 -11 -12 -29 -22 -40 -18 -21 -32 -46 -71 -130 -17 -37 -24 -71 -26
-135 -4 -116 -6 -133 -20 -148 -7 -7 -13 -20 -13 -28 0 -8 -5 -14 -11 -14 -14
0 -3 -49 17 -71 13 -14 8 -26 -46 -105 -68 -101 -82 -145 -55 -174 10 -11 28
-20 39 -20 33 0 63 -26 69 -60 5 -21 12 -30 26 -30 10 0 21 -9 24 -19 4 -15
11 -18 27 -14 31 8 18 -12 -19 -32 -25 -12 -29 -22 -35 -72 -3 -32 -9 -79 -12
-104 -5 -42 -3 -48 26 -72 17 -15 35 -27 40 -27 5 0 16 -15 25 -34 10 -21 41
-50 80 -77 36 -24 65 -49 65 -54 0 -6 -19 -29 -41 -50 -23 -22 -63 -66 -91
-99 -27 -32 -70 -69 -96 -83 -26 -13 -60 -37 -77 -53 -69 -65 -103 -80 -179
-80 -77 0 -87 -4 -105 -38 -15 -29 -35 -28 -55 3 -11 17 -26 25 -46 25 -16 0
-41 5 -55 12 -23 10 -25 17 -26 72 0 34 -2 72 -4 86 -1 14 -6 207 -9 430 -4
223 -9 448 -11 500 -3 52 -7 302 -10 555 -6 472 -10 545 -29 557 -7 5 -6 8 4
8 11 0 15 11 13 48 0 26 -1 122 -2 215 -1 163 -2 167 -22 167 -21 0 -21 -3
-15 -122z m1106 -178 c0 -5 -7 -10 -16 -10 -8 0 -12 5 -9 10 3 6 10 10 16 10
5 0 9 -4 9 -10z m-52 -101 c-20 -13 -28 -11 -22 5 3 8 12 12 21 9 12 -5 12 -7
1 -14z m62 -18 c0 -6 -4 -12 -10 -16 -5 -3 -6 -13 -3 -23 4 -12 3 -14 -5 -7
-12 11 -5 55 9 55 5 0 9 -4 9 -9z m-15 -71 c-3 -5 -11 -10 -16 -10 -6 0 -7 5
-4 10 3 6 11 10 16 10 6 0 7 -4 4 -10z m268 -127 c-7 -2 -19 -2 -25 0 -7 3 -2
5 12 5 14 0 19 -2 13 -5z m-613 -557 c0 -12 -6 -31 -14 -42 -15 -19 -15 -19
-29 1 -9 11 -13 23 -11 27 3 5 0 8 -7 8 -7 0 -2 9 10 19 27 24 51 17 51 -13z
m13 -126 c13 0 17 -5 14 -15 -4 -8 -2 -17 4 -21 7 -4 6 -10 -1 -19 -13 -16 -6
-20 36 -24 21 -1 33 3 37 13 9 22 22 20 51 -7 15 -14 26 -37 28 -57 3 -32 6
-35 47 -42 24 -4 48 -12 55 -17 16 -13 127 -51 149 -51 18 0 18 -2 -3 -36 -25
-43 -13 -69 18 -41 24 22 46 22 38 1 -13 -35 8 -34 45 2 34 33 39 44 39 82 0
52 -31 102 -63 102 -18 0 -19 2 -7 10 24 15 36 12 69 -19 24 -22 31 -38 31
-66 0 -53 -55 -145 -87 -145 -7 0 -20 -11 -29 -25 -9 -14 -25 -25 -36 -25 -41
0 -58 -18 -58 -65 0 -24 4 -46 9 -49 17 -11 66 15 108 57 38 37 46 40 70 31
18 -6 36 -25 51 -54 12 -25 38 -63 57 -85 19 -22 44 -51 54 -64 15 -20 28 -25
75 -28 31 -1 61 -5 66 -8 6 -4 10 -22 10 -41 0 -19 7 -48 15 -64 8 -16 12 -31
7 -33 -4 -3 -46 -14 -93 -25 -117 -28 -304 -89 -362 -119 -27 -13 -52 -22 -55
-19 -3 3 0 6 5 6 8 0 6 19 -4 58 -8 31 -15 66 -16 77 0 11 -5 23 -11 27 -5 3
-9 20 -9 37 0 20 -5 31 -14 31 -8 0 -11 5 -7 12 5 8 0 9 -14 6 -25 -7 -30 9
-7 18 8 4 13 9 10 14 -2 4 4 16 14 27 16 17 17 23 6 44 -7 13 -11 27 -9 31 3
5 -3 8 -12 8 -13 0 -15 3 -7 11 12 12 4 34 -25 70 -7 9 -12 20 -11 25 4 26 -4
45 -31 71 -36 34 -40 57 -7 48 15 -4 18 -3 8 3 -11 8 -11 10 0 15 9 3 6 8 -11
15 -17 6 -27 6 -32 -2 -9 -12 -28 9 -28 32 0 20 -58 15 -69 -7 -8 -15 -6 -22
10 -32 24 -16 17 -45 -12 -54 -21 -7 -25 -35 -8 -52 6 -6 9 -18 7 -27 -6 -29
-37 4 -40 42 -1 19 -6 36 -10 38 -4 3 -5 11 -1 19 3 10 -1 15 -15 15 -11 0
-23 -6 -25 -12 -3 -8 -6 -6 -6 5 -1 9 -7 17 -15 17 -17 0 -38 -24 -29 -33 3
-4 2 -7 -3 -7 -14 1 -44 26 -44 38 0 6 -5 12 -12 14 -6 2 -12 16 -12 30 -1 15
1 25 5 22 4 -2 9 9 12 24 6 27 32 44 100 66 30 10 18 68 -21 101 -25 21 -32
34 -32 63 0 28 3 33 12 24 7 -7 21 -12 31 -12z m531 -257 c-5 -20 -15 -38 -22
-41 -9 -3 -10 3 -2 23 5 14 10 38 10 53 0 20 3 23 12 14 8 -8 9 -22 2 -49z
m-334 -93 c0 -5 -5 -10 -12 -10 -6 0 -8 -3 -5 -7 4 -3 2 -12 -4 -19 -9 -11
-14 -11 -26 2 -12 12 -13 18 -3 29 14 17 50 20 50 5z m785 -146 c3 -27 8 -67
11 -88 6 -37 5 -39 -17 -33 -13 4 -37 7 -54 7 l-30 1 23 18 c12 11 22 26 22
35 0 9 5 16 11 16 5 0 8 4 4 9 -5 9 16 93 22 87 1 -1 5 -24 8 -52z m-2308 -77
c6 2 13 0 16 -4 3 -5 -12 -9 -34 -9 -24 -1 -39 4 -39 11 0 20 13 25 29 11 9
-7 21 -11 28 -9z m2250 -53 c-3 -3 -12 -4 -19 -1 -8 3 -5 6 6 6 11 1 17 -2 13
-5z m-2409 -59 c25 -38 29 -51 22 -75 -16 -55 -23 -53 -41 11 -9 35 -21 74
-24 87 -12 37 11 25 43 -23z m-28 -1054 c0 -4 -6 -15 -13 -26 -13 -16 -14 -15
-9 13 2 18 8 29 13 26 5 -3 9 -9 9 -13z m-13 -103 c-3 -8 -6 -5 -6 6 -1 11 2
17 5 13 3 -3 4 -12 1 -19z m-5 -66 c7 3 17 22 24 44 l13 39 -5 -50 c-6 -59
-22 -115 -34 -115 -11 0 -20 55 -18 114 1 51 2 51 5 8 3 -26 9 -42 15 -40z
m68 9 c0 -5 5 -22 12 -38 15 -35 17 -53 20 -126 1 -35 6 -61 13 -63 7 -3 11
-16 9 -29 -1 -14 2 -27 7 -31 5 -3 9 -14 9 -25 0 -10 6 -19 13 -19 9 0 8 -3
-2 -9 -7 -5 -13 -21 -13 -35 0 -15 -4 -29 -9 -32 -5 -3 -9 11 -9 30 0 20 -4
36 -9 36 -5 0 -15 26 -21 58 -6 31 -20 95 -30 143 -19 81 -19 149 1 149 5 0 9
-4 9 -9z m429 -96 c84 -87 198 -157 314 -192 9 -3 17 -9 17 -14 0 -5 -7 -6
-15 -3 -12 5 -15 -2 -15 -34 0 -23 5 -44 10 -47 6 -3 10 -13 10 -21 0 -8 -4
-13 -9 -10 -9 6 -12 -43 -3 -58 13 -23 -2 -152 -33 -270 l-34 -129 -68 -66
c-40 -39 -79 -89 -95 -121 -15 -30 -27 -49 -28 -42 0 6 -7 12 -15 12 -9 0 -18
7 -22 16 -3 9 -13 14 -24 11 -11 -3 -19 -1 -19 5 0 5 -4 7 -9 4 -5 -4 -21 -2
-34 3 l-25 10 15 48 c9 26 16 58 17 70 1 32 60 53 145 53 68 0 77 5 60 35 -4
6 -5 30 -3 55 2 25 -2 47 -8 51 -6 4 -11 30 -10 57 1 38 -4 56 -20 74 -39 44
-47 63 -52 126 -3 35 -8 67 -11 72 -3 5 -8 22 -10 37 -7 49 -16 86 -22 96 -3
6 -8 26 -10 46 -2 19 -9 41 -14 48 -6 7 -13 31 -15 54 -2 23 -11 51 -21 61 -9
10 -12 18 -6 18 5 0 33 -25 62 -55z m410 -224 c12 -8 13 -16 2 -53 -7 -24 -19
-54 -27 -68 -12 -23 -13 -18 -14 53 0 79 6 89 39 68z m-92 -43 c-3 -7 -5 -2
-5 12 0 14 2 19 5 13 2 -7 2 -19 0 -25z m-657 -3 c0 -8 -4 -15 -10 -15 -5 0
-7 7 -4 15 4 8 8 15 10 15 2 0 4 -7 4 -15z m11 -53 c-21 -7 -32 -39 -21 -66 7
-19 6 -26 -3 -27 -8 0 -8 -2 1 -6 10 -4 8 -9 -7 -20 -21 -14 -31 -70 -11 -58
6 3 10 0 10 -7 0 -20 -18 -43 -26 -35 -10 10 -15 109 -5 103 4 -3 13 6 20 20
16 36 14 49 -6 33 -14 -12 -14 -10 2 21 25 49 48 75 54 59 2 -7 -1 -15 -8 -17z
m-185 -130 c16 -84 -21 -299 -54 -310 -6 -2 -19 9 -29 24 -14 22 -18 48 -18
119 0 105 18 178 51 204 13 10 22 20 21 22 -1 2 4 -2 10 -10 7 -8 16 -30 19
-49z m174 -123 c-13 -23 -33 -24 -51 -2 -13 15 -12 15 9 4 21 -11 24 -10 29 8
3 11 9 18 14 15 5 -3 5 -14 -1 -25z m260 -243 c0 -3 -4 -8 -10 -11 -5 -3 -10
-1 -10 4 0 6 5 11 10 11 6 0 10 -2 10 -4z m-145 -216 c3 -5 1 -10 -4 -10 -6 0
-11 5 -11 10 0 6 2 10 4 10 3 0 8 -4 11 -10z m-115 -65 c0 -8 -4 -15 -10 -15
-5 0 -7 7 -4 15 4 8 8 15 10 15 2 0 4 -7 4 -15z"/>
<path d="M1360 805 c-10 -12 -9 -16 4 -21 18 -7 22 -39 6 -49 -12 -8 -13 -105
-1 -105 24 0 32 31 25 104 -7 81 -14 95 -34 71z m30 -124 c0 -6 -4 -13 -10
-16 -5 -3 -10 1 -10 9 0 9 5 16 10 16 6 0 10 -4 10 -9z"/>
<path d="M2997 4473 c-11 -10 -8 -25 3 -18 6 3 10 -2 10 -11 0 -13 3 -15 10
-8 6 6 8 18 4 27 -6 18 -16 21 -27 10z"/>
<path d="M1415 4420 c-19 -8 -19 -9 3 -9 12 -1 22 4 22 9 0 6 -1 10 -2 9 -2 0
-12 -4 -23 -9z"/>
<path d="M3110 4320 c0 -5 -7 -10 -16 -10 -18 0 -14 -22 4 -26 7 -1 8 0 2 3
-6 2 0 13 12 24 13 10 17 18 11 19 -7 0 -13 -4 -13 -10z"/>
<path d="M1266 4312 c-3 -6 2 -18 11 -28 12 -12 18 -13 21 -4 6 16 -24 45 -32
32z"/>
<path d="M1232 4290 c0 -14 2 -19 5 -12 2 6 2 18 0 25 -3 6 -5 1 -5 -13z"/>
<path d="M3200 4260 c-13 -16 -29 -30 -36 -30 -17 0 -18 -26 -2 -36 7 -5 9 -2
5 9 -4 10 1 18 14 22 10 4 19 11 19 16 0 5 7 9 15 9 8 0 15 5 15 11 0 5 5 7
11 3 7 -4 10 -1 7 6 -8 24 -24 21 -48 -10z"/>
<path d="M1090 4199 c-7 -35 -14 -86 -15 -114 -1 -27 -5 -60 -9 -72 -6 -18 -4
-22 8 -17 9 4 20 -5 30 -23 8 -15 15 -21 16 -13 0 9 -7 26 -16 38 -16 23 -15
58 2 111 5 17 4 22 -4 17 -15 -9 -15 0 -1 64 6 27 9 55 7 61 -2 7 -10 -17 -18
-52z"/>
<path d="M1262 4131 c-1 -19 -9 -39 -18 -46 -9 -6 -15 -17 -13 -24 3 -9 9 -8
22 2 14 10 17 23 14 57 -3 37 -4 39 -5 11z"/>
<path d="M3230 4080 c0 -5 5 -10 11 -10 5 0 7 5 4 10 -3 6 -8 10 -11 10 -2 0
-4 -4 -4 -10z"/>
<path d="M2760 4070 c0 -5 5 -10 10 -10 6 0 10 5 10 10 0 6 -4 10 -10 10 -5 0
-10 -4 -10 -10z"/>
<path d="M1272 4032 c-25 -72 -26 -75 -14 -68 7 4 20 -6 32 -26 11 -18 20 -27
20 -20 0 17 -20 55 -33 63 -11 8 0 49 13 49 5 0 18 -17 29 -37 11 -21 20 -32
21 -25 0 15 -36 88 -48 96 -4 2 -13 -12 -20 -32z"/>
<path d="M1703 3995 c3 -7 2 -16 -3 -21 -5 -5 -5 -25 -1 -44 l7 -34 11 29 c24
63 25 72 2 78 -14 4 -19 2 -16 -8z"/>
<path d="M3230 3960 c0 -5 5 -10 10 -10 6 0 10 5 10 10 0 6 -4 10 -10 10 -5 0
-10 -4 -10 -10z"/>
<path d="M1065 3910 c-9 -17 -11 -30 -5 -30 5 0 10 7 10 15 0 9 7 18 15 21 17
7 21 24 5 24 -5 0 -16 -13 -25 -30z"/>
<path d="M1062 3838 c5 -15 28 -23 28 -10 0 5 -7 13 -16 16 -10 4 -14 1 -12
-6z"/>
<path d="M1677 3770 c-4 -47 -9 -105 -11 -130 -3 -27 0 -18 7 20 7 36 14 70
17 75 3 6 3 35 0 65 l-5 55 -8 -85z"/>
<path d="M1273 3816 c5 -16 24 -18 30 -4 3 9 -3 14 -14 14 -11 0 -18 -5 -16
-10z"/>
<path d="M1742 3703 c-50 -124 -96 -263 -88 -270 3 -3 8 0 10 8 3 8 23 66 44
129 22 63 51 141 66 173 14 31 22 57 17 57 -5 0 -27 -44 -49 -97z"/>
<path d="M1120 3757 c-8 -17 -25 -34 -37 -37 -16 -4 -20 -9 -14 -19 14 -22 40
-5 57 35 19 45 14 63 -6 21z"/>
<path d="M1904 3735 c-14 -30 -27 -71 -29 -92 -4 -34 -4 -35 3 -8 5 17 19 53
31 80 l22 50 19 -25 19 -25 -11 38 c-6 20 -15 37 -20 37 -5 0 -20 -25 -34 -55z"/>
<path d="M1260 3724 c0 -35 58 -45 78 -14 12 21 12 21 -13 4 -24 -16 -27 -16
-45 1 -11 10 -20 14 -20 9z"/>
<path d="M1912 3683 c-12 -23 -22 -50 -21 -60 0 -11 5 -6 11 12 6 17 17 38 25
47 8 9 13 23 11 30 -3 7 -15 -6 -26 -29z"/>
<path d="M480 3697 c0 -4 18 -39 40 -78 22 -39 40 -74 40 -77 1 -9 37 -52 44
-52 12 0 5 28 -8 33 -8 3 -31 36 -52 74 -43 78 -64 111 -64 100z"/>
<path d="M1292 3620 c0 -14 2 -19 5 -12 2 6 2 18 0 25 -3 6 -5 1 -5 -13z"/>
<path d="M592 3590 c0 -14 2 -19 5 -12 2 6 2 18 0 25 -3 6 -5 1 -5 -13z"/>
<path d="M1220 3565 c-14 -36 -13 -42 3 -20 9 11 19 15 26 10 9 -5 12 -2 9 10
-5 29 -27 29 -38 0z"/>
<path d="M1281 3574 c0 -11 3 -14 6 -6 3 7 2 16 -1 19 -3 4 -6 -2 -5 -13z"/>
<path d="M1417 3553 c-5 -26 -4 -26 9 -8 16 22 18 35 5 35 -5 0 -11 -12 -14
-27z"/>
<path d="M1861 3564 c0 -11 3 -14 6 -6 3 7 2 16 -1 19 -3 4 -6 -2 -5 -13z"/>
<path d="M1890 3576 c0 -4 11 -21 25 -38 14 -16 25 -25 25 -19 0 12 -49 69
-50 57z"/>
<path d="M1238 3510 c-24 -22 -23 -34 2 -27 10 3 21 0 24 -7 3 -6 3 -1 0 12
-3 12 -1 22 5 22 6 0 11 4 11 8 0 14 -24 10 -42 -8z"/>
<path d="M1422 3503 c-22 -27 -31 -93 -13 -93 6 0 9 8 8 18 0 10 7 35 17 56
22 46 17 55 -12 19z"/>
<path d="M2440 3521 c0 -10 98 -26 107 -17 10 10 1 13 -54 20 -31 4 -53 3 -53
-3z"/>
<path d="M730 3495 c0 -8 4 -15 9 -15 23 0 76 -60 102 -115 16 -33 29 -54 29
-46 0 7 -14 42 -30 76 -38 80 -110 145 -110 100z"/>
<path d="M635 3479 c-4 -6 -5 -12 -2 -15 2 -3 7 2 10 11 7 17 1 20 -8 4z"/>
<path d="M574 3455 c-17 -13 -17 -14 -2 -15 9 0 20 5 23 11 11 17 0 20 -21 4z"/>
<path d="M1917 3446 c-20 -16 -23 -36 -3 -36 7 0 16 10 19 22 8 28 6 29 -16
14z"/>
<path d="M1251 3434 c0 -11 3 -14 6 -6 3 7 2 16 -1 19 -3 4 -6 -2 -5 -13z"/>
<path d="M673 3397 c-11 -12 -24 -33 -27 -47 -6 -23 -6 -23 5 -5 6 11 21 30
32 42 11 13 18 25 15 28 -2 3 -14 -5 -25 -18z"/>
<path d="M715 3411 c-9 -16 3 -31 25 -31 13 0 30 -21 55 -72 21 -40 34 -59 30
-43 -17 74 -92 174 -110 146z"/>
<path d="M1876 3370 c3 -14 14 -33 24 -43 17 -18 18 -18 39 4 11 12 21 30 21
38 0 11 -5 9 -16 -7 -20 -30 -40 -28 -59 6 -15 26 -16 26 -9 2z"/>
<path d="M1226 3348 c-3 -13 -6 -35 -6 -50 0 -15 -5 -30 -10 -33 -13 -8 -50
-80 -50 -97 0 -7 7 1 16 17 17 33 53 75 65 75 4 0 14 -17 22 -37 9 -21 16 -32
16 -25 1 7 -5 28 -13 47 -8 18 -12 44 -8 57 5 21 4 22 -13 8 -17 -14 -18 -13
-11 23 8 40 2 51 -8 15z"/>
<path d="M1398 3330 c-3 -25 -9 -56 -13 -70 -7 -25 -7 -25 9 -5 l17 20 -5 -20
c-16 -62 -13 -73 5 -22 11 31 24 57 29 57 4 0 13 -14 20 -30 7 -17 15 -29 17
-26 3 2 -5 26 -17 53 -20 44 -22 46 -33 28 -11 -18 -12 -16 -17 20 l-6 40 -6
-45z"/>
<path d="M1973 3300 c6 -22 13 -38 15 -36 6 7 -10 76 -18 76 -4 0 -2 -18 3
-40z"/>
<path d="M691 3298 c-10 -30 -9 -31 4 -14 8 11 15 26 15 33 0 22 -8 14 -19
-19z"/>
<path d="M631 3304 c0 -11 3 -14 6 -6 3 7 2 16 -1 19 -3 4 -6 -2 -5 -13z"/>
<path d="M756 3313 c-11 -12 -6 -30 9 -30 8 0 15 6 15 13 0 15 -15 26 -24 17z"/>
<path d="M2038 3313 c-2 -5 -1 -24 3 -43 3 -19 7 -29 8 -22 0 6 10 12 21 12
11 0 20 5 20 11 0 5 5 7 10 4 6 -3 10 -1 10 4 0 6 -4 11 -9 11 -5 0 -12 8 -14
18 -3 12 -5 9 -6 -8 l-2 -25 -19 23 c-10 12 -20 19 -22 15z"/>
<path d="M4230 3309 c0 -5 9 -9 20 -9 11 0 20 2 20 4 0 2 -9 6 -20 9 -11 3
-20 1 -20 -4z"/>
<path d="M1820 3288 c0 -13 -3 -34 -6 -48 -5 -24 -5 -24 10 -6 18 22 22 76 6
76 -5 0 -10 -10 -10 -22z"/>
<path d="M1866 3260 c-8 -28 -18 -68 -21 -88 -3 -20 6 1 20 47 14 46 24 86 21
88 -3 3 -12 -18 -20 -47z"/>
<path d="M4284 3301 c3 -5 15 -7 26 -4 28 7 25 13 -6 13 -14 0 -23 -4 -20 -9z"/>
<path d="M1750 3284 c0 -8 5 -12 10 -9 6 3 10 10 10 16 0 5 -4 9 -10 9 -5 0
-10 -7 -10 -16z"/>
<path d="M1696 3253 c8 -49 8 -45 -1 -66 -4 -10 -5 -20 -2 -24 3 -3 13 11 21
31 17 41 18 52 5 49 -5 -2 -9 8 -9 22 0 14 -5 25 -10 25 -7 0 -8 -14 -4 -37z"/>
<path d="M881 3254 c0 -11 3 -14 6 -6 3 7 2 16 -1 19 -3 4 -6 -2 -5 -13z"/>
<path d="M1750 3249 c0 -12 33 -49 44 -49 1 0 3 14 4 31 0 23 -2 28 -12 20 -9
-7 -16 -7 -24 1 -9 9 -12 9 -12 -3z"/>
<path d="M1436 3243 c-11 -12 -6 -30 9 -30 8 0 15 6 15 13 0 15 -15 26 -24 17z"/>
<path d="M1991 3240 c0 -8 6 -35 13 -60 8 -25 15 -38 15 -30 0 8 -6 35 -13 60
-8 25 -15 38 -15 30z"/>
<path d="M690 3225 c-10 -13 -9 -15 9 -15 12 0 21 6 21 15 0 8 -4 15 -9 15 -5
0 -14 -7 -21 -15z"/>
<path d="M751 3209 c-16 -46 -14 -49 19 -49 34 0 41 19 10 27 -15 4 -18 11
-14 29 9 35 -2 29 -15 -7z"/>
<path d="M1810 3194 c0 -8 5 -12 10 -9 6 3 10 10 10 16 0 5 -4 9 -10 9 -5 0
-10 -7 -10 -16z"/>
<path d="M693 3175 c-13 -5 -23 -15 -23 -22 0 -17 12 -16 34 0 26 19 17 35
-11 22z"/>
<path d="M841 3174 c0 -11 3 -14 6 -6 3 7 2 16 -1 19 -3 4 -6 -2 -5 -13z"/>
<path d="M901 3174 c0 -11 3 -14 6 -6 3 7 2 16 -1 19 -3 4 -6 -2 -5 -13z"/>
<path d="M1445 3171 c-4 -7 -1 -18 5 -26 13 -16 4 -59 -11 -50 -5 4 -9 -1 -9
-9 0 -22 17 -20 30 3 12 24 13 61 1 80 -6 9 -10 10 -16 2z"/>
<path d="M1207 3163 c-12 -12 -7 -30 8 -30 17 0 18 6 7 25 -5 7 -11 9 -15 5z"/>
<path d="M2021 3114 c0 -11 3 -14 6 -6 3 7 2 16 -1 19 -3 4 -6 -2 -5 -13z"/>
<path d="M1821 3064 c-7 -30 -11 -57 -8 -60 2 -2 9 21 16 52 7 30 11 57 8 60
-2 2 -9 -21 -16 -52z"/>
<path d="M1220 3101 c0 -8 -7 -11 -15 -7 -17 6 -19 -2 -6 -23 7 -11 11 -9 21
9 6 12 9 24 6 28 -3 3 -6 0 -6 -7z"/>
<path d="M2031 3064 c0 -11 3 -14 6 -6 3 7 2 16 -1 19 -3 4 -6 -2 -5 -13z"/>
<path d="M750 3036 c-14 -37 -13 -43 4 -21 12 16 16 17 30 6 23 -19 20 2 -4
24 -19 17 -20 17 -30 -9z"/>
<path d="M2041 3028 c0 -9 4 -29 10 -44 9 -24 7 -30 -13 -46 l-23 -18 23 0
c14 0 22 -6 23 -17 0 -14 2 -13 9 5 12 29 28 28 36 -3 4 -14 9 -23 12 -21 10
10 -21 86 -35 86 -8 0 -13 12 -14 33 0 26 -2 28 -8 12 -8 -19 -9 -18 -13 5 -3
14 -6 17 -7 8z"/>
<path d="M1401 3015 c0 -20 28 -47 43 -42 8 3 20 16 26 29 10 21 10 21 -3 6
-8 -10 -20 -18 -27 -18 -7 0 -19 8 -26 18 -7 9 -13 13 -13 7z"/>
<path d="M318 3004 c-5 -4 -8 -16 -8 -28 0 -14 3 -17 11 -9 6 6 9 19 7 28 -1
9 -6 13 -10 9z"/>
<path d="M1182 2990 c8 -14 23 -27 32 -28 19 -4 56 24 56 41 0 6 -9 1 -20 -11
-26 -27 -28 -27 -59 1 l-25 22 16 -25z"/>
<path d="M440 2971 c0 -11 4 -21 10 -23 8 -2 -87 -84 -111 -96 -3 -1 -4 10 -1
26 2 18 -2 33 -12 41 -14 12 -16 11 -16 -7 0 -11 6 -22 12 -24 8 -3 4 -9 -10
-17 -25 -13 -31 -47 -7 -37 27 10 16 -3 -66 -82 -45 -43 -80 -83 -78 -90 2 -6
56 39 119 100 132 127 205 188 227 188 10 0 13 6 9 16 -3 9 -6 18 -6 20 0 2
-16 4 -35 4 -28 0 -35 -4 -35 -19z"/>
<path d="M1777 2937 c-15 -29 -27 -61 -26 -72 0 -13 4 -8 10 13 13 43 26 40
49 -10 21 -47 26 -40 9 11 -9 24 -9 35 0 44 6 6 11 17 11 25 0 12 -3 12 -16 1
-13 -11 -14 -9 -9 14 11 41 1 32 -28 -26z"/>
<path d="M100 2925 c0 -5 5 -17 10 -25 5 -8 10 -10 10 -5 0 6 -5 17 -10 25 -5
8 -10 11 -10 5z"/>
<path d="M689 2902 c20 -37 89 -102 109 -102 22 0 52 30 52 51 0 8 -6 5 -16
-9 -24 -35 -53 -27 -108 31 -27 28 -44 42 -37 29z"/>
<path d="M797 2907 c-3 -9 -16 -17 -27 -17 -20 0 -27 -14 -11 -24 13 -9 55 28
49 44 -3 11 -6 10 -11 -3z"/>
<path d="M2075 2881 c-3 -5 -1 -12 5 -16 5 -3 10 1 10 9 0 18 -6 21 -15 7z"/>
<path d="M1190 2860 c0 -8 3 -25 6 -38 6 -22 8 -22 25 -6 23 21 25 46 3 37 -9
-3 -20 0 -25 8 -7 12 -9 12 -9 -1z"/>
<path d="M2121 2854 c0 -11 3 -14 6 -6 3 7 2 16 -1 19 -3 4 -6 -2 -5 -13z"/>
<path d="M1770 2829 c0 -11 8 -28 17 -37 16 -16 16 -16 10 1 -4 10 -7 27 -7
38 0 10 -4 19 -10 19 -5 0 -10 -9 -10 -21z"/>
<path d="M2076 2833 c-4 -9 -2 -21 4 -27 7 -7 10 -2 10 17 0 31 -5 34 -14 10z"/>
<path d="M1430 2826 c0 -6 12 -13 27 -14 15 -1 29 -6 32 -10 3 -4 42 -16 86
-26 44 -9 118 -26 164 -37 46 -11 85 -18 88 -15 2 2 -9 7 -26 11 -41 9 -93 35
-107 53 -7 9 -43 18 -100 24 -49 5 -106 13 -126 17 -27 6 -38 5 -38 -3z"/>
<path d="M2075 2771 c-3 -5 -1 -12 5 -16 5 -3 10 1 10 9 0 18 -6 21 -15 7z"/>
<path d="M626 2730 c19 -42 84 -114 125 -141 45 -29 102 -38 114 -19 4 6 -5 7
-23 4 -53 -11 -134 46 -205 146 -10 14 -15 18 -11 10z"/>
<path d="M4420 2680 c0 -5 5 -10 10 -10 6 0 10 5 10 10 0 6 -4 10 -10 10 -5 0
-10 -4 -10 -10z"/>
<path d="M4465 2680 c-16 -7 -13 -9 18 -9 20 -1 37 4 37 9 0 12 -27 12 -55 0z"/>
<path d="M4185 2670 c4 -6 11 -8 16 -5 14 9 11 15 -7 15 -8 0 -12 -5 -9 -10z"/>
<path d="M4233 2673 c9 -2 25 -2 35 0 9 3 1 5 -18 5 -19 0 -27 -2 -17 -5z"/>
<path d="M4308 2673 c12 -2 30 -2 40 0 9 3 -1 5 -23 4 -22 0 -30 -2 -17 -4z"/>
<path d="M2085 2659 c-4 -6 -5 -13 -2 -16 7 -7 27 6 27 18 0 12 -17 12 -25 -2z"/>
<path d="M1897 2603 c-4 -3 -7 -11 -7 -17 0 -6 5 -5 12 2 6 6 9 14 7 17 -3 3
-9 2 -12 -2z"/>
<path d="M1927 2603 c-11 -10 -8 -43 3 -43 6 0 10 11 10 25 0 26 -2 29 -13 18z"/>
<path d="M20 2544 c0 -8 5 -12 10 -9 6 3 10 10 10 16 0 5 -4 9 -10 9 -5 0 -10
-7 -10 -16z"/>
<path d="M935 2540 c-12 -38 -68 -92 -120 -116 -40 -19 -67 -24 -138 -24 -99
0 -118 -7 -246 -92 -167 -110 -281 -157 -383 -158 -21 0 -38 -4 -38 -10 0 -13
76 -13 142 1 55 11 177 72 238 119 19 14 64 44 100 66 64 39 67 40 170 43 111
3 148 13 206 57 33 25 91 120 81 131 -3 2 -8 -5 -12 -17z"/>
<path d="M1871 2534 c0 -11 3 -14 6 -6 3 7 2 16 -1 19 -3 4 -6 -2 -5 -13z"/>
<path d="M122 2396 c-15 -40 -64 -86 -93 -86 -10 0 -19 -4 -19 -10 0 -13 36
-13 61 0 20 11 72 105 67 121 -2 6 -9 -5 -16 -25z"/>
<path d="M182 2117 c-26 -28 -62 -125 -61 -164 0 -18 6 -6 15 32 8 32 21 70
30 82 l15 24 28 -21 c16 -11 38 -39 50 -62 11 -24 21 -36 21 -27 0 22 -50 119
-62 119 -6 0 -8 9 -5 20 7 26 -5 25 -31 -3z"/>
<path d="M176 2022 c-18 -36 -14 -72 10 -72 21 0 17 -37 -6 -60 -23 -23 -26
-40 -7 -40 33 0 53 125 22 136 -11 5 -12 11 -4 26 6 10 8 24 6 31 -2 7 -11 -3
-21 -21z"/>
<path d="M1366 1914 c-4 -12 -2 -15 9 -11 12 5 14 -2 11 -33 -2 -22 0 -38 5
-34 15 9 11 94 -5 94 -8 0 -17 -7 -20 -16z"/>
<path d="M271 1894 c0 -11 3 -14 6 -6 3 7 2 16 -1 19 -3 4 -6 -2 -5 -13z"/>
<path d="M257 1849 c-3 -14 -16 -38 -28 -53 -17 -22 -28 -27 -50 -24 -33 5
-36 -2 -11 -25 16 -15 20 -15 40 -1 27 19 64 89 60 112 -3 12 -6 9 -11 -9z"/>
<path d="M130 1825 c0 -5 5 -17 10 -25 5 -8 10 -10 10 -5 0 6 -5 17 -10 25 -5
8 -10 11 -10 5z"/>
<path d="M281 1790 c0 -8 4 -22 9 -30 12 -18 12 -2 0 25 -6 13 -9 15 -9 5z"/>
<path d="M147 1733 c-6 -10 -37 -114 -37 -125 0 -4 4 -8 8 -8 5 0 15 30 24 67
15 63 17 86 5 66z"/>
<path d="M300 1738 c0 -4 23 -55 52 -113 l52 -104 -22 -21 c-29 -27 -28 -42 2
-34 22 5 24 3 20 -18 -2 -12 5 2 15 32 11 30 20 46 21 35 1 -11 4 -15 7 -7 2
6 9 10 14 6 5 -3 9 4 9 15 0 12 -4 21 -10 21 -5 0 -10 8 -11 18 0 9 -9 -1 -20
-23 l-18 -40 -2 55 c-1 44 -3 49 -8 25 l-7 -30 -12 35 c-13 37 -81 160 -82
148z"/>
<path d="M430 1635 c0 -8 7 -18 15 -21 21 -8 57 -70 72 -124 l13 -45 -5 45
c-7 56 -55 154 -78 158 -10 2 -17 -3 -17 -13z"/>
<path d="M431 1413 c-1 -45 3 -84 8 -87 12 -8 28 14 35 49 6 26 5 27 -3 8 -14
-31 -31 -29 -31 2 0 23 10 30 34 26 5 -1 6 8 2 21 -3 13 -6 32 -6 43 -1 17 -3
17 -12 -5 l-11 -25 -7 25 c-5 17 -8 -3 -9 -57z"/>
<path d="M1370 1340 c0 -14 -5 -18 -17 -13 -14 5 -15 1 -10 -25 6 -27 4 -32
-13 -32 -11 0 -20 5 -20 11 0 19 -25 3 -26 -17 -1 -10 -5 -31 -9 -46 -6 -22
-4 -28 9 -28 9 0 16 8 16 21 0 11 5 17 10 14 6 -3 10 -1 10 5 0 6 8 14 17 17
32 13 53 43 53 78 0 19 -4 35 -10 35 -5 0 -10 -9 -10 -20z"/>
<path d="M485 1286 c-22 -34 -53 -45 -66 -24 -10 15 -12 -2 -3 -26 12 -30 42
-17 70 29 30 52 29 69 -1 21z"/>
<path d="M1340 1191 c0 -11 5 -23 10 -26 6 -4 10 5 10 19 0 14 -4 26 -10 26
-5 0 -10 -9 -10 -19z"/>
</g>
</svg>
